<?xml version="1.0" encoding="UTF-8"?>
<svg xmlns="http://www.w3.org/2000/svg" xmlns:xlink="http://www.w3.org/1999/xlink" width="36pt" height="36pt" viewBox="0 0 36 36" version="1.1">
<g id="surface958">
<path style=" stroke:none;fill-rule:nonzero;fill:rgb(100%,100%,100%);fill-opacity:1;" d="M 18 3 C 9.714844 3 3 9.714844 3 18 C 3 26.285156 9.714844 33 18 33 C 26.285156 33 33 26.285156 33 18 C 33 9.714844 26.285156 3 18 3 Z M 18 25.5 C 17.171875 25.5 16.5 24.828125 16.5 24 L 16.5 18 C 16.5 17.171875 17.171875 16.5 18 16.5 C 18.828125 16.5 19.5 17.171875 19.5 18 L 19.5 24 C 19.5 24.828125 18.828125 25.5 18 25.5 Z M 18.75 13.5 L 17.25 13.5 C 16.835938 13.5 16.5 13.164062 16.5 12.75 L 16.5 11.25 C 16.5 10.835938 16.835938 10.5 17.25 10.5 L 18.75 10.5 C 19.164062 10.5 19.5 10.835938 19.5 11.25 L 19.5 12.75 C 19.5 13.164062 19.164062 13.5 18.75 13.5 Z M 18.75 13.5 "/>
</g>
</svg>
