<?xml version="1.0" encoding="UTF-8"?>
<svg xmlns="http://www.w3.org/2000/svg" xmlns:xlink="http://www.w3.org/1999/xlink" width="36pt" height="36pt" viewBox="0 0 36 36" version="1.1">
<g id="surface4668">
<path style=" stroke:none;fill-rule:nonzero;fill:rgb(100%,100%,100%);fill-opacity:1;" d="M 18 3 C 9.730469 3 3 9.730469 3 18 C 3 26.269531 9.730469 33 18 33 C 26.269531 33 33 26.269531 33 18 C 33 9.730469 26.269531 3 18 3 Z M 24 19.5 L 17.164062 19.5 C 16.742188 19.5 16.339844 19.324219 16.054688 19.011719 L 8.972656 11.242188 C 8.695312 10.941406 8.675781 10.464844 8.945312 10.15625 C 10.96875 7.816406 13.875 6.261719 17.144531 6.03125 C 17.609375 5.996094 18 6.386719 18 6.855469 L 18 16.5 L 24 16.5 C 24.828125 16.5 25.5 17.171875 25.5 18 C 25.5 18.828125 24.828125 19.5 24 19.5 Z M 24 19.5 "/>
</g>
</svg>
