<?xml version="1.0" encoding="UTF-8"?>
<svg xmlns="http://www.w3.org/2000/svg" xmlns:xlink="http://www.w3.org/1999/xlink" width="36pt" height="36pt" viewBox="0 0 36 36" version="1.1">
<g id="surface3256">
<path style=" stroke:none;fill-rule:nonzero;fill:rgb(100%,100%,100%);fill-opacity:1;" d="M 24 6 C 21.8125 6 19.765625 6.597656 18 7.621094 C 16.234375 6.597656 14.1875 6 12 6 C 5.382812 6 0 11.382812 0 18 C 0 24.617188 5.382812 30 12 30 C 14.1875 30 16.234375 29.402344 18 28.378906 C 19.765625 29.402344 21.8125 30 24 30 C 30.617188 30 36 24.617188 36 18 C 36 11.382812 30.617188 6 24 6 Z M 3 18 C 3 13.035156 7.035156 9 12 9 C 13.195312 9 14.339844 9.238281 15.386719 9.664062 C 13.292969 11.828125 12 14.761719 12 18 C 12 21.238281 13.292969 24.171875 15.386719 26.335938 C 14.339844 26.761719 13.195312 27 12 27 C 7.035156 27 3 22.964844 3 18 Z M 24 27 C 22.804688 27 21.660156 26.761719 20.613281 26.335938 C 22.707031 24.171875 24 21.238281 24 18 C 24 14.761719 22.707031 11.828125 20.613281 9.664062 C 21.660156 9.238281 22.804688 9 24 9 C 28.964844 9 33 13.035156 33 18 C 33 22.964844 28.964844 27 24 27 Z M 24 27 "/>
</g>
</svg>
