<?xml version="1.0" encoding="UTF-8"?>
<svg xmlns="http://www.w3.org/2000/svg" xmlns:xlink="http://www.w3.org/1999/xlink" width="48pt" height="48pt" viewBox="0 0 48 48" version="1.1">
<g id="surface1563">
<path style=" stroke:none;fill-rule:nonzero;fill:rgb(100%,100%,100%);fill-opacity:1;" d="M 19.5 0.1875 C 18.863281 0.1875 18.375 0.675781 18.375 1.3125 L 18.375 4.5 C 18.375 5.136719 18.863281 5.625 19.5 5.625 C 20.136719 5.625 20.625 5.136719 20.625 4.5 L 20.625 1.3125 C 20.625 0.675781 20.136719 0.1875 19.5 0.1875 Z M 28.574219 0.1875 C 27.9375 0.148438 27.375 0.675781 27.375 1.3125 L 27.375 10.800781 C 27.375 11.398438 26.925781 11.960938 26.324219 12 C 25.6875 12.039062 25.125 11.511719 25.125 10.875 L 25.125 9 C 25.125 8.398438 24.636719 7.875 24 7.875 C 18.898438 7.875 14.101562 8.363281 10.460938 9.226562 C 6.1875 10.238281 4.125 11.664062 4.125 13.5 C 4.125 20.699219 9.9375 26.960938 18.375 28.988281 L 18.375 36.523438 C 18.375 36.789062 18.449219 37.011719 18.601562 37.199219 C 21.074219 40.460938 25.425781 41.4375 27.710938 41.4375 C 28.085938 41.4375 28.425781 41.398438 28.6875 41.363281 C 29.210938 41.25 29.585938 40.800781 29.585938 40.273438 L 29.585938 28.949219 C 37.835938 26.960938 43.835938 20.773438 43.835938 13.5 C 43.875 11.664062 41.8125 10.238281 37.539062 9.226562 C 35.289062 8.699219 32.585938 8.289062 29.625 8.0625 L 29.625 1.386719 C 29.625 0.789062 29.175781 0.226562 28.574219 0.1875 Z M 19.5 10.875 C 20.136719 10.875 20.625 11.363281 20.625 12 L 20.625 13.5 C 20.625 14.136719 20.136719 14.625 19.5 14.625 C 18.863281 14.625 18.375 14.136719 18.375 13.5 L 18.375 12 C 18.375 11.363281 18.863281 10.875 19.5 10.875 Z M 6.824219 16.574219 C 7.800781 17.023438 9 17.4375 10.5 17.773438 C 14.101562 18.636719 18.898438 19.125 24 19.125 C 29.101562 19.125 33.898438 18.636719 37.539062 17.773438 C 39.039062 17.398438 40.238281 17.023438 41.210938 16.574219 C 39.488281 22.460938 33.039062 26.960938 25.085938 27.335938 C 24.449219 27.375 24 27.898438 24 28.5 C 24.039062 29.101562 24.523438 29.585938 25.125 29.585938 L 25.164062 29.585938 C 25.914062 29.550781 26.625 29.476562 27.375 29.363281 L 27.375 39.148438 C 25.726562 39.074219 22.574219 38.363281 20.625 36.074219 L 20.625 27.898438 C 20.550781 27.449219 20.210938 27.039062 19.726562 26.925781 C 13.164062 25.648438 8.25 21.601562 6.824219 16.574219 Z M 24 43.5 C 23.363281 43.5 22.875 43.988281 22.875 44.625 L 22.875 46.5 C 22.875 47.136719 23.363281 47.625 24 47.625 C 24.636719 47.625 25.125 47.136719 25.125 46.5 L 25.125 44.625 C 25.125 43.988281 24.636719 43.5 24 43.5 Z M 24 43.5 "/>
</g>
</svg>
