<?xml version="1.0" encoding="UTF-8"?>
<svg xmlns="http://www.w3.org/2000/svg" xmlns:xlink="http://www.w3.org/1999/xlink" width="36pt" height="36pt" viewBox="0 0 36 36" version="1.1">
<g id="surface993">
<path style=" stroke:none;fill-rule:nonzero;fill:rgb(100%,100%,100%);fill-opacity:1;" d="M 18 1.5 C 13.015625 1.5 9 5.515625 9 10.5 L 9 12 C 7.351562 12 6 13.351562 6 15 L 6 30 C 6 31.648438 7.351562 33 9 33 L 27 33 C 28.648438 33 30 31.648438 30 30 L 30 15 C 30 13.351562 28.648438 12 27 12 L 27 10.5 C 27 5.515625 22.984375 1.5 18 1.5 Z M 18 4.5 C 21.414062 4.5 24 7.085938 24 10.5 L 24 12 L 12 12 L 12 10.5 C 12 7.085938 14.585938 4.5 18 4.5 Z M 18 19.5 C 19.648438 19.5 21 20.851562 21 22.5 C 21 24.148438 19.648438 25.5 18 25.5 C 16.351562 25.5 15 24.148438 15 22.5 C 15 20.851562 16.351562 19.5 18 19.5 Z M 18 19.5 "/>
</g>
</svg>
