<?xml version="1.0" encoding="UTF-8"?>
<svg xmlns="http://www.w3.org/2000/svg" xmlns:xlink="http://www.w3.org/1999/xlink" width="36pt" height="36pt" viewBox="0 0 36 36" version="1.1">
<g id="surface3196">
<path style=" stroke:none;fill-rule:nonzero;fill:rgb(100%,100%,100%);fill-opacity:1;" d="M 18 3.878906 L 17.089844 4.789062 C 16.980469 4.871094 16.886719 4.96875 16.804688 5.074219 L 10.941406 10.941406 C 10.546875 11.316406 10.390625 11.875 10.527344 12.398438 C 10.664062 12.925781 11.074219 13.335938 11.601562 13.472656 C 12.125 13.609375 12.683594 13.453125 13.058594 13.058594 L 16.5 9.621094 L 16.5 21 C 16.5 25.160156 13.160156 28.5 9 28.5 L 4.5 28.5 C 3.960938 28.492188 3.457031 28.777344 3.183594 29.242188 C 2.910156 29.710938 2.910156 30.289062 3.183594 30.757812 C 3.457031 31.222656 3.960938 31.507812 4.5 31.5 L 9 31.5 C 12.816406 31.5 16.160156 29.4375 18 26.371094 C 19.839844 29.4375 23.183594 31.5 27 31.5 L 31.5 31.5 C 32.039062 31.507812 32.542969 31.222656 32.816406 30.757812 C 33.089844 30.289062 33.089844 29.710938 32.816406 29.242188 C 32.542969 28.777344 32.039062 28.492188 31.5 28.5 L 27 28.5 C 22.839844 28.5 19.5 25.160156 19.5 21 L 19.5 9.621094 L 22.941406 13.058594 C 23.316406 13.453125 23.875 13.609375 24.398438 13.472656 C 24.925781 13.335938 25.335938 12.925781 25.472656 12.398438 C 25.609375 11.875 25.453125 11.316406 25.058594 10.941406 L 19.1875 5.066406 C 19.105469 4.960938 19.011719 4.863281 18.90625 4.785156 Z M 18 3.878906 "/>
</g>
</svg>
