<?xml version="1.0" encoding="UTF-8"?>
<svg xmlns="http://www.w3.org/2000/svg" xmlns:xlink="http://www.w3.org/1999/xlink" width="36pt" height="36pt" viewBox="0 0 36 36" version="1.1">
<g id="surface983">
<path style=" stroke:none;fill-rule:nonzero;fill:rgb(100%,100%,100%);fill-opacity:1;" d="M 6.375 8.25 C 4.101562 8.25 2.25 10.101562 2.25 12.375 L 2.25 23.625 C 2.25 25.898438 4.101562 27.75 6.375 27.75 L 29.625 27.75 C 31.898438 27.75 33.75 25.898438 33.75 23.625 L 33.75 12.375 C 33.75 10.101562 31.898438 8.25 29.625 8.25 Z M 22.875 12 C 25.5625 12 27.75 14.1875 27.75 16.875 C 27.75 17.8125 27.480469 18.683594 27.019531 19.429688 L 29.671875 22.078125 C 30.109375 22.519531 30.109375 23.230469 29.671875 23.671875 C 29.449219 23.890625 29.164062 24 28.875 24 C 28.585938 24 28.300781 23.890625 28.078125 23.671875 L 25.429688 21.019531 C 24.683594 21.480469 23.8125 21.75 22.875 21.75 C 20.1875 21.75 18 19.5625 18 16.875 C 18 14.1875 20.1875 12 22.875 12 Z M 22.875 14.25 C 21.425781 14.25 20.25 15.425781 20.25 16.875 C 20.25 18.324219 21.425781 19.5 22.875 19.5 C 24.324219 19.5 25.5 18.324219 25.5 16.875 C 25.5 15.425781 24.324219 14.25 22.875 14.25 Z M 22.875 14.25 "/>
</g>
</svg>
